<?xml version="1.0" standalone="no"?>
<!DOCTYPE svg PUBLIC "-//W3C//DTD SVG 20010904//EN"
 "http://www.w3.org/TR/2001/REC-SVG-20010904/DTD/svg10.dtd">
<svg version="1.0" xmlns="http://www.w3.org/2000/svg"
 width="700.000000pt" height="700.000000pt" viewBox="0 0 700.000000 700.000000"
 preserveAspectRatio="xMidYMid meet">
<metadata>
Created by potrace 1.11, written by Peter Selinger 2001-2013
</metadata>
<g transform="translate(0.000000,700.000000) scale(0.100000,-0.100000)"
fill="#000000" stroke="none">
<path d="M5029 6996 c-2 -2 -49 -7 -104 -10 -55 -4 -109 -9 -120 -11 -11 -2
-42 -7 -70 -10 -118 -13 -345 -60 -492 -101 -87 -24 -166 -46 -177 -49 -53
-13 -257 -89 -397 -148 -135 -57 -384 -185 -519 -267 -97 -58 -338 -217 -350
-230 -3 -3 -52 -41 -110 -85 -351 -266 -730 -643 -1016 -1010 -425 -547 -721
-1180 -843 -1805 -28 -144 -29 -150 -46 -285 -36 -282 -40 -683 -10 -925 2
-19 7 -57 10 -85 24 -191 103 -556 148 -681 l15 -41 -474 -474 -474 -474 152
-153 152 -153 474 475 475 474 46 -14 c109 -35 323 -88 443 -110 106 -19 141
-25 213 -34 212 -27 317 -34 535 -33 203 0 319 7 485 28 155 20 171 23 255 40
41 8 86 16 100 19 100 17 396 104 550 161 447 167 808 373 1245 709 237 183
613 550 826 806 383 461 653 930 833 1448 39 113 96 315 111 392 2 12 6 29 9
38 3 9 8 33 11 52 3 19 10 53 15 76 5 22 12 58 15 80 2 21 6 48 9 59 2 11 7
47 11 80 4 33 9 71 10 85 26 182 26 714 0 885 -2 17 -7 53 -10 80 -6 54 -33
211 -40 235 -2 8 -6 32 -10 54 -13 92 -113 444 -150 531 -7 17 -20 48 -29 70
-16 39 -22 43 -124 82 -278 107 -682 194 -1027 222 -96 8 -549 13 -556 7z"/>
</g>
</svg>
